# xmcd
#
# Track frame offsets: 
#        151
#        13893
#        28536
#        44448
#        58167
#        73692
#        95420
#        98013
#        112276
#        129472
#        144061
#        156475
#        170689
#
# Disc length: 2578 seconds
#
# Revision: 0
# Processed by: cddbd v1.4PL0 Copyright (c) Steve Scherf et al.
# Submitted via: ExactAudioCopy v0.90b4
#
DISCID=b80a100d
DTITLE=Bryan Sutton - Bluegrass Guitar
DYEAR=2003
DGENRE=Bluegrass
TTITLE0=Hangman's Reel
TTITLE1=Daley's Reel
TTITLE2=The High Road
TTITLE3=Big Sandy River
TTITLE4=Back Up and Push
TTITLE5=Margaret's Waltz
TTITLE6=Spoken Interview
TTITLE7=High Heel Shoe
TTITLE8=Nelia's Dance
TTITLE9=Whippersnapper
TTITLE10=Roanoke
TTITLE11=Beaumont Rag
TTITLE12=The Storms Are on the Ocean
EXTD=
EXTT0=
EXTT1=
EXTT2=
EXTT3=
EXTT4=
EXTT5=
EXTT6=
EXTT7=
EXTT8=
EXTT9=
EXTT10=
EXTT11=
EXTT12=
PLAYORDER=
